<svg viewBox="0 0 370 140" xmlns="http://www.w3.org/2000/svg">
  <defs>
    <linearGradient gradientUnits="userSpaceOnUse" x1="235.17" y1="0" x2="235.17" y2="470.34" id="gradient-0" gradientTransform="matrix(-0.004955, 0.748931, -0.929028, -0.003448, -99.558801, 206.786225)">
      <stop offset="0" style="stop-color: rgb(23.922% 65.098% 92.941%)"></stop>
      <stop offset="1" style="stop-color: rgb(0% 39.127% 60.777%)"></stop>
    </linearGradient>
    <linearGradient gradientUnits="userSpaceOnUse" x1="235.17" y1="0" x2="235.17" y2="470.34" id="gradient-1" gradientTransform="matrix(-0.346228, 0.702619, -0.963478, -0.266306, 527.471931, 182.771676)">
      <stop offset="0" style="stop-color: rgb(23.922% 65.098% 92.941%)"></stop>
      <stop offset="1" style="stop-color: rgb(0% 39.127% 60.777%)"></stop>
    </linearGradient>
  </defs>
  <rect x="2.545" y="2.716" width="363.299" height="131.589" rx="16.436" ry="16.436" style="stroke: rgb(0, 0, 0); fill: rgb(37, 42, 52);"></rect>
  <g transform="matrix(1, 0, 0, 1, -1.672787, -1.258877)">
    <g transform="matrix(0.544164, 0, 0, 0.544164, -263.963688, -120.01948)" style="">
      <g transform="matrix(0.222156, 0, 0, 0.296627, 360.683874, 109.629274)" style="transform-origin: 235.17px 235.17px;">
        <path d="M 127.773 456.157 C 221.049 481.584 333.812 426.383 379.142 333.107 C 397.891 294.528 398.459 229.903 380.835 141.024 C 367.944 76.03 349.583 20.975 349.398 20.426 C 348.368 17.356 345.887 15.088 342.566 14.183 C 339.245 13.277 335.396 13.82 331.972 15.676 C 331.36 16.008 270.043 49.343 204.387 92.925 C 114.602 152.525 59.573 202.305 40.824 240.884 C -4.508 334.16 34.498 430.731 127.773 456.157 Z M 216.525 112.02 C 262.754 81.323 306.799 55.801 328.216 43.711 C 334.237 63.244 346.04 103.882 355.107 149.606 C 371.529 232.406 371.716 293.646 355.651 326.704 C 316.616 407.026 219.511 454.56 139.19 432.665 C 58.868 410.77 25.279 327.61 64.314 247.288 C 80.366 214.259 133 167.483 216.525 112.02 Z" style="fill: url(#gradient-1); transform-origin: 235.17px 235.17px;"></path>
      </g>
    </g>
    <g transform="matrix(0.113598, 0.041347, -0.055207, 0.151679, -120.071886, -157.62369)" style="transform-origin: 235.17px 235.17px;">
      <path d="M -320.691 578.312 C -221.429 578.312 -140.675 497.556 -140.675 398.294 C -140.675 357.239 -169.654 296.366 -226.804 217.361 C -268.598 159.589 -310.994 112.557 -311.418 112.089 C -313.788 109.468 -317.155 107.972 -320.69 107.972 C -324.224 107.972 -327.593 109.468 -329.963 112.089 C -330.386 112.558 -372.782 159.589 -414.576 217.361 C -471.728 296.365 -500.706 357.239 -500.706 398.294 C -500.708 497.556 -419.953 578.312 -320.691 578.312 Z" style="fill: url(#gradient-0);"></path>
    </g>
  </g>
  <path d="M 85.535 116.423 L 85.535 106.175 Q 92.212 109.228 97.026 109.228 Q 100.235 109.228 102.719 107.184 Q 105.203 105.139 105.203 97.117 L 105.203 40.287 L 120.524 40.287 L 120.524 96.082 Q 120.524 105.088 118.117 109.487 Q 115.71 113.887 111.026 116.371 Q 106.342 118.855 98.32 118.855 Q 93.092 118.855 85.535 116.423 Z M 105.203 30.712 L 105.203 17.928 L 120.524 17.928 L 120.524 30.712 Z M 156.496 98.411 Q 147.283 98.411 140.684 94.814 Q 134.084 91.217 130.617 84.229 Q 127.149 77.242 127.149 68.702 Q 127.149 60.214 130.565 53.252 Q 133.981 46.291 140.606 42.642 Q 147.231 38.993 156.496 38.993 Q 165.812 38.993 172.411 42.642 Q 179.01 46.291 182.452 53.252 Q 185.894 60.214 185.894 68.702 Q 185.894 77.242 182.426 84.229 Q 178.959 91.217 172.359 94.814 Q 165.76 98.411 156.496 98.411 Z M 156.496 88.836 Q 163.017 88.836 166.304 83.117 Q 169.59 77.397 169.59 68.702 Q 169.59 60.058 166.304 54.313 Q 163.017 48.568 156.496 48.568 Q 150.026 48.568 146.739 54.313 Q 143.453 60.058 143.453 68.702 Q 143.453 77.397 146.739 83.117 Q 150.026 88.836 156.496 88.836 Z M 227.71 97.117 L 227.71 86.403 Q 223.621 92.925 218.6 95.668 Q 213.58 98.411 208.352 98.411 Q 201.624 98.411 196.785 94.089 Q 191.945 89.767 191.945 80.451 L 191.945 40.287 L 207.266 40.287 L 207.266 76.673 Q 207.266 81.331 208.12 82.987 Q 208.974 84.643 210.449 85.497 Q 211.924 86.351 213.735 86.351 Q 216.892 86.351 220.308 84.255 Q 223.724 82.159 227.71 76.052 L 227.71 40.287 L 243.03 40.287 L 243.03 97.117 Z M 254.775 97.117 L 254.775 40.287 L 269.474 40.287 L 269.474 51.001 Q 272.373 45.825 277.083 42.409 Q 281.793 38.993 288.625 38.993 Q 292.765 38.993 295.819 40.261 Q 298.873 41.529 301.228 44.246 Q 303.583 46.964 304.256 51.001 Q 308.5 44.583 312.873 41.788 Q 317.247 38.993 323.51 38.993 Q 330.445 38.993 334.767 43.056 Q 339.089 47.119 339.089 56.177 L 339.089 97.117 L 324.389 97.117 L 324.389 61.197 Q 324.389 54.831 322.345 52.968 Q 320.301 51.104 317.764 51.104 Q 314.297 51.104 310.907 53.589 Q 307.516 56.073 304.256 61.042 L 304.256 97.117 L 289.556 97.117 L 289.556 61.197 Q 289.556 54.883 287.564 52.968 Q 285.571 51.053 282.776 51.053 Q 279.412 51.053 276.074 53.537 Q 272.735 56.021 269.474 61.042 L 269.474 97.117 Z" style="fill: rgb(255, 255, 255); stroke: rgb(255, 255, 255); stroke-width: 3px;"></path>
</svg>